<svg width="1024" height="1152"><path fill="#F8B762" stroke="#000000" stroke-width="0" d="M128 512Q137.5 263.618 356.7 160.073 499.1 90.912 669.7 161.078 892 275.656 896 512"/><line stroke="#E6A878" stroke-width="32" stroke-linecap="round" x1="992" y1="512" x2="32" y2="512"/><line stroke="#D5998D" stroke-width="32" stroke-linecap="round" x1="480" y1="608" x2="128" y2="608"/><line stroke="#D5998D" stroke-width="32" stroke-linecap="round" x1="544" y1="608" x2="608" y2="608"/><line stroke="#D5998D" stroke-width="32" stroke-linecap="round" x1="896" y1="608" x2="672" y2="608"/><line stroke="#C38AA3" stroke-width="32" stroke-linecap="round" x1="352" y1="704" x2="192" y2="704"/><line stroke="#C38AA3" stroke-width="32" stroke-linecap="round" x1="832" y1="704" x2="416" y2="704"/><path opacity="1" fill-opacity="0" stroke="#C57E7C" stroke-width="36" stroke-linecap="round" stroke-linejoin="round" d="M64 1088 64 832C224 800 224 992 64 960L125.8 965.777 192 1088"/><line stroke="#C57E7C" stroke-width="36" stroke-linecap="round" x1="288" y1="1088" x2="288" y2="832"/><path fill-opacity="0" stroke="#C57E7C" stroke-width="36" stroke-linecap="round" stroke-linejoin="round" d="M384 832 512 832 384 1088l128 0"/><ellipse opacity="1" fill-opacity="0" stroke="#C57E7C" stroke-opacity="1" stroke-width="36" cx="656" cy="960" rx="80" ry="128"/><path fill-opacity="0" stroke="#C57E7C" stroke-width="36" stroke-linecap="round" stroke-linejoin="round" d="M816 1088 816 832l144 256 0-256"/></svg>